<svg width="512" height="476" viewBox="0 0 512 476" fill="none" xmlns="http://www.w3.org/2000/svg">
<path d="M242.823 0.824799C188.226 6.62444 143.229 46.522 131.13 99.8187C130.13 103.918 129.23 108.318 128.93 109.518C128.63 111.418 127.63 111.718 120.83 112.318C101.131 113.918 84.8325 118.518 68.6335 126.817C34.2356 144.516 10.2371 176.514 1.83758 215.812C-0.562274 227.411 -0.662268 252.909 1.83758 264.509C5.63734 282.607 14.5368 302.706 24.7362 316.305C36.6354 332.304 56.2342 348.203 73.6332 356.203C88.7322 363.003 108.331 367.802 121.83 367.802H127.53V351.903V336.104L118.83 335.504C81.7327 332.904 47.7348 305.606 36.2355 269.308C23.9362 230.411 37.3354 188.213 69.6334 163.815C88.7322 149.516 113.631 142.216 135.429 144.716C152.728 146.616 158.628 141.116 159.928 121.817C162.728 80.3199 191.526 45.822 232.123 35.2227C245.423 31.7229 263.821 31.5229 276.721 34.6227C306.119 41.8223 328.417 59.5212 341.517 86.1196C347.716 98.7188 350.416 109.118 351.216 123.017C351.716 131.217 352.316 134.617 353.916 137.416C356.516 142.116 361.315 145.016 366.315 145.016C368.315 145.016 376.115 144.916 383.514 144.816C395.213 144.616 398.313 145.016 406.913 147.216C447.91 157.915 476.408 192.413 479.208 234.91C482.408 285.607 442.51 331.904 392.314 335.504L383.514 336.104V351.903V367.802H389.314C402.613 367.802 422.712 363.003 437.411 356.203C454.81 348.203 474.409 332.204 486.308 316.305C496.507 302.606 505.207 283.007 509.106 264.609C511.606 252.909 511.706 227.411 509.206 215.812C503.607 189.513 492.407 168.714 474.009 150.316C450.91 127.117 424.512 115.218 390.314 112.318L382.614 111.618L381.914 108.018C377.114 79.8199 365.715 57.9213 345.616 37.7225C323.818 15.8239 298.819 4.0246 267.521 0.824799C256.922 -0.275133 253.322 -0.275133 242.823 0.824799Z" fill="white"/>
<path d="M243.323 309.606C216.625 336.404 193.926 359.803 193.026 361.703C189.626 368.502 192.326 376.702 199.526 381.602C202.726 383.802 203.326 383.802 233.924 383.802H265.022L230.524 418.299L196.026 452.797L207.325 463.997L218.525 475.296L267.622 426.299C295.42 398.501 317.319 375.902 318.119 374.102C321.118 367.103 318.419 358.803 311.819 354.703C308.119 352.303 307.519 352.303 277.121 352.003L246.123 351.704L280.321 317.506L314.519 283.308L303.219 272.008L292.02 260.809L243.323 309.606Z" fill="white"/>
</svg>
